<?xml version="1.0"?>
<svg xmlns="http://www.w3.org/2000/svg" height="512px" viewBox="-60 0 512 512" width="512px" class=""><g><path d="m382.984375 425.183594-88.605469-133.496094c43.257813-28.40625 71.882813-77.34375 71.882813-132.851562 0-87.582032-71.253907-158.835938-158.835938-158.835938h-151.527343c-30.820313 0-55.898438 25.078125-55.898438 55.898438v400.195312c0 30.824219 25.078125 55.902344 55.898438 55.902344 30.824218 0 55.902343-25.078125 55.902343-55.902344v-138.421875h65.636719l112.394531 169.335937c10.386719 15.648438 27.8125 24.992188 46.613281 24.992188 11.003907 0 21.679688-3.226562 30.875-9.328125 25.683594-17.050781 32.707032-51.808594 15.664063-77.488281zm-46.722656-266.347656c0 45.089843-23.289063 84.839843-58.46875 107.867187l-23.789063-35.847656c-1.65625-2.492188-3.480468-4.800781-5.441406-6.9375 21.550781-13.667969 35.898438-37.722657 35.898438-65.082031 0-42.476563-34.558594-77.035157-77.03125-77.035157h-95.628907v-25.902343c0-9.339844-2.316406-18.148438-6.386719-25.898438h102.015626c71.039062 0 128.832031 57.796875 128.832031 128.835938zm-142.730469 128.835937-7.683594-11.578125c-7.898437-11.898438-4.644531-28.003906 7.257813-35.902344 4.394531-2.917968 9.363281-4.3125 14.28125-4.3125 8.394531 0 16.640625 4.0625 21.621093 11.566406l21.722657 32.730469c-13.542969 4.847657-28.117188 7.496094-43.304688 7.496094zm-137.632812-81.804687c-9.34375 0-18.152344 2.316406-25.898438 6.386718v-106.839844c7.75 4.070313 16.558594 6.386719 25.898438 6.386719h25.902343v94.066407zm25.902343 30v51.804687h-25.898437c-14.28125 0-25.902344-11.621094-25.902344-25.902344s11.621094-25.898437 25.902344-25.898437h25.898437zm30-124.066407h95.625c25.9375 0 47.035157 21.101563 47.035157 47.035157 0 25.933593-21.101563 47.03125-47.035157 47.03125h-95.625zm-55.902343-81.800781c14.28125 0 25.902343 11.617188 25.902343 25.898438v25.902343h-25.902343c-14.28125 0-25.898438-11.621093-25.898438-25.902343s11.617188-25.898438 25.898438-25.898438zm25.902343 426.097656c0 14.28125-11.617187 25.898438-25.898437 25.898438s-25.902344-11.617188-25.902344-25.898438v-144.8125c7.75 4.070313 16.558594 6.386719 25.902344 6.386719h25.898437zm30-220.230468h46.105469c-8.253906 15.851562-8.691406 35.242187-.019531 51.804687h-46.085938zm238.929688 241.808593c-4.261719 2.828125-9.203125 4.324219-14.285157 4.324219-8.722656 0-16.804687-4.328125-21.617187-11.582031l-101.464844-152.871094c19.171875-.707031 37.488281-4.828125 54.355469-11.773437l90.269531 136c7.898438 11.898437 4.640625 28.003906-7.257812 35.902343zm0 0" data-original="#000000" class="active-path" data-old_color="#000000" fill="#040b14"/></g> </svg>
